<?xml version="1.0" standalone="no"?>
<!DOCTYPE svg PUBLIC "-//W3C//DTD SVG 20010904//EN"
 "http://www.w3.org/TR/2001/REC-SVG-20010904/DTD/svg10.dtd">
<svg version="1.0" xmlns="http://www.w3.org/2000/svg"
 width="180.000000pt" height="180.000000pt" viewBox="0 0 180.000000 180.000000"
 preserveAspectRatio="xMidYMid meet">
<metadata>
Created by potrace 1.11, written by Peter Selinger 2001-2013
</metadata>
<g transform="translate(0.000000,180.000000) scale(0.100000,-0.100000)"
fill="#000000" stroke="none">
<path d="M135 1781 c-45 -21 -89 -61 -113 -106 -15 -27 -17 -100 -17 -775 0
-824 -4 -767 65 -837 63 -64 49 -63 836 -63 679 0 714 1 756 19 50 22 91 59
115 104 17 30 18 85 18 772 0 821 4 775 -66 843 -65 63 -49 62 -838 61 -666 0
-719 -2 -756 -18z"/>
</g>
</svg>
